<svg xmlns="http://www.w3.org/2000/svg" viewBox="0 0 203 54.56"><g><path d="M181.97,15.36v5.12h15.89v22.62h5.14V17.96l-2.53-2.6h-18.5Z" fill="#f0f0f0"></path><path d="M181.97,20.48h-5.14v22.62h5.14V20.48Z" fill="#f0f0f0"></path><path d="M181.97,0h-5.14V15.36h5.14V0Z" fill="#f0f0f0"></path><path d="M148.05,37.98V20.48h20.72v-5.12h-23.33l-2.53,2.6v22.54l2.53,2.6h23.33v-5.12h-20.72Z" fill="#f0f0f0"></path><path d="M118.88,26.67v5.12h13.43l2.53-2.6v-11.23l-2.53-2.6h-21.11l-2.53,2.6v22.54l2.53,2.6h23.64v-5.12h-21.03V20.48h15.89v6.19h-10.82Z" fill="#f0f0f0"></path><path d="M88.57,20.48h-5.14v20.02l2.61,2.6h14.58v-5.12h-12.05V20.48Z" fill="#f0f0f0"></path><path d="M88.57,15.36V5.12h-5.14V15.36h5.14v5.12h12.05v-5.12h-12.05Z" fill="#f0f0f0"></path><path d="M51.88,15.36l-2.61,2.6v22.54l2.61,2.6h13.28v-5.12h-10.74V20.48h15.89v28.96h-21.03v5.12l23.64-.08,2.53-2.6V17.96l-2.53-2.6h-21.03Z" fill="#f0f0f0"></path><path d="M40.29,15.36h-5.14v27.66h5.14V15.36Z" fill="#f0f0f0"></path><path d="M2.61,15.36l-2.61,2.6v11.23l2.61,2.6H21.03v6.19H0v5.12H23.64l2.53-2.6v-11.31l-2.53-2.52H5.14v-6.19H26.17v-5.12H2.61Z" fill="#f0f0f0"></path><path d="M40.27,5.27h-5.14v5.12h5.14V5.27Z" fill="#96fb9a"></path></g></svg>